<svg width="36" height="44" viewBox="0 0 36 44" fill="none" xmlns="http://www.w3.org/2000/svg">
<path d="M1 37.4583V6.20833C1 4.827 1.54873 3.50224 2.52549 2.52549C3.50224 1.54873 4.827 1 6.20833 1H34.3333V42.6667H6.20833C4.827 42.6667 3.50224 42.1179 2.52549 41.1412C1.54873 40.1644 1 38.8397 1 37.4583ZM1 37.4583C1 36.077 1.54873 34.7522 2.52549 33.7755C3.50224 32.7987 4.827 32.25 6.20833 32.25H34.3333" stroke="black" stroke-width="2" stroke-linecap="round" stroke-linejoin="round"/>
<path d="M17.6667 17.6663C19.9679 17.6663 21.8333 15.8009 21.8333 13.4997C21.8333 11.1985 19.9679 9.33301 17.6667 9.33301C15.3655 9.33301 13.5 11.1985 13.5 13.4997C13.5 15.8009 15.3655 17.6663 17.6667 17.6663Z" stroke="black" stroke-width="2" stroke-linecap="round" stroke-linejoin="round"/>
<path d="M23.9166 23.916C23.9166 22.2584 23.2581 20.6687 22.086 19.4966C20.9139 18.3245 19.3242 17.666 17.6666 17.666C16.009 17.666 14.4193 18.3245 13.2472 19.4966C12.0751 20.6687 11.4166 22.2584 11.4166 23.916" stroke="black" stroke-width="2" stroke-linecap="round" stroke-linejoin="round"/>
</svg>
